<?xml version="1.0" standalone="no"?><!DOCTYPE svg PUBLIC "-//W3C//DTD SVG 1.1//EN" "http://www.w3.org/Graphics/SVG/1.1/DTD/svg11.dtd"><svg t="1630999075317" class="icon" viewBox="0 0 1024 1024" version="1.1" xmlns="http://www.w3.org/2000/svg" p-id="2236" width="128" height="128" xmlns:xlink="http://www.w3.org/1999/xlink"><defs><style type="text/css"></style></defs><path d="M865.502609 885.092174v-0.890435h111.304348c20.925217 0 38.288696-17.363478 38.288695-39.17913s-17.363478-39.17913-38.288695-39.179131H7.568696v-0.890435h970.128695c21.370435 0 38.733913 17.808696 38.733913 39.624348s-17.363478 39.624348-38.733913 39.624348h-112.194782v0.890435z" fill="#5F51A0" p-id="2237"></path><path d="M977.697391 798.72H7.568696c-4.006957 0-6.678261 3.561739-6.678261 7.123478 0 4.006957 3.561739 7.123478 6.678261 7.123479h969.238261c17.808696 0 31.610435 14.692174 31.610434 32.500869 0 18.253913-14.246957 32.50087-31.610434 32.50087h-111.304348c-4.006957 0-6.678261 2.671304-6.678261 7.123478 0 4.006957 3.561739 7.123478 6.678261 7.123478h112.194782c24.932174 0 45.412174-20.48 45.412174-46.302609 0-25.822609-20.034783-47.193043-45.412174-47.193043z" fill="#23267A" p-id="2238"></path><path d="M823.652174 885.092174v-0.890435h22.706087v0.445218l-22.706087 0.445217z" fill="#5F51A0" p-id="2239"></path><path d="M846.358261 877.523478H823.652174c-4.006957 0-6.678261 2.671304-6.678261 7.123479s3.561739 7.123478 6.678261 7.123478h22.706087c4.006957 0 7.568696-2.671304 6.678261-7.123478 0.445217-4.006957-3.116522-7.123478-6.678261-7.123479z" fill="#23267A" p-id="2240"></path><path d="M794.713043 885.092174v-0.890435h11.130435v0.890435h-11.130435z" fill="#5F51A0" p-id="2241"></path><path d="M805.843478 877.523478h-11.130435c-4.006957 0-6.678261 2.671304-6.67826 7.123479s3.561739 7.123478 6.67826 7.123478h11.130435c3.561739 0 6.678261-2.671304 6.678261-7.123478 0.445217-4.006957-3.116522-7.123478-6.678261-7.123479z" fill="#23267A" p-id="2242"></path><path d="M517.342609 885.092174v-0.890435h257.780869v0.445218l-257.780869 0.445217z" fill="#5F51A0" p-id="2243"></path><path d="M775.123478 877.523478h-257.780869c-4.006957 0-6.678261 2.671304-6.678261 7.123479s3.561739 7.123478 6.678261 7.123478h258.671304c3.561739 0 6.678261-2.671304 6.233044-7.123478-0.445217-4.006957-4.006957-7.123478-7.123479-7.123479z" fill="#23267A" p-id="2244"></path><path d="M315.213913 964.786087c-21.370435 0-38.733913-17.808696-38.733913-39.624348s17.363478-39.624348 38.733913-39.624348h111.304348v0.890435h-111.304348c-20.925217 0-38.288696 17.363478-38.288696 39.179131s17.363478 39.17913 38.288696 39.17913H694.53913v0.890435H315.213913v-0.890435z" fill="#5F51A0" p-id="2245"></path><path d="M426.518261 878.413913h-111.304348c-24.932174 0-45.412174 20.48-45.412174 46.302609 0 25.377391 20.034783 46.302609 45.412174 46.302608H694.53913c3.561739 0 6.678261-2.671304 6.678261-7.123478 0-4.006957-3.561739-7.123478-6.678261-7.123478H315.213913c-17.808696 0-31.610435-14.692174-31.610435-32.50087 0-18.253913 14.246957-32.50087 31.610435-32.500869h111.304348c4.006957 0 6.678261-2.671304 6.678261-7.123478 0-3.561739-3.561739-6.233043-6.678261-6.233044z" fill="#23267A" p-id="2246"></path><path d="M445.662609 885.092174v-0.890435h22.706087v0.445218l-22.706087 0.445217z" fill="#5F51A0" p-id="2247"></path><path d="M468.368696 877.523478h-22.706087c-4.006957 0-6.678261 2.671304-6.678261 7.123479s3.561739 7.123478 6.678261 7.123478h22.706087c4.006957 0 7.568696-2.671304 6.678261-7.123478 0-4.006957-3.116522-7.123478-6.678261-7.123479z" fill="#23267A" p-id="2248"></path><path d="M487.513043 885.092174v-0.890435h11.130435v0.890435h-11.130435z" fill="#5F51A0" p-id="2249"></path><path d="M498.643478 877.523478h-11.130435c-4.006957 0-6.678261 2.671304-6.67826 7.123479s3.561739 7.123478 6.67826 7.123478h11.130435c3.561739 0 6.678261-2.671304 6.678261-7.123478 0-4.006957-3.116522-7.123478-6.678261-7.123479z" fill="#23267A" p-id="2250"></path><path d="M59.213913 708.34087h876.187826V805.843478H59.213913z" fill="#F1E128" p-id="2251"></path><path d="M928.723478 715.01913v84.146087H65.892174v-84.146087h862.831304m8.904348-13.356521H56.987826c-2.671304 0-4.452174 1.78087-4.452174 4.452174v101.954782c0 2.671304 1.78087 4.452174 4.452174 4.452174h880.64c2.671304 0 4.452174-1.78087 4.452174-4.452174v-101.954782c0-2.671304-1.78087-4.452174-4.452174-4.452174z" fill="#23267A" p-id="2252"></path><path d="M504.876522 182.53913c-3.561739 0-6.678261-3.116522-6.678261-6.67826V104.18087c0-3.561739 3.116522-6.678261 6.678261-6.678261s6.678261 3.116522 6.678261 6.678261v71.68c0 3.561739-3.116522 6.678261-6.678261 6.67826z" fill="#23267A" p-id="2253"></path><path d="M332.577391 727.04H676.730435v78.358261H332.577391z" fill="#F1E128" p-id="2254"></path><path d="M670.052174 733.718261v65.001739H339.255652v-65.001739h330.796522m8.904348-13.356522H330.351304c-2.671304 0-4.452174 1.78087-4.452174 4.452174v82.810435c0 2.671304 1.78087 4.452174 4.452174 4.452174h348.605218c2.671304 0 4.452174-1.78087 4.452174-4.452174v-82.810435c0-2.226087-1.78087-4.452174-4.452174-4.452174z" fill="#23267A" p-id="2255"></path><path d="M329.46087 727.04l-11.575653-16.027826 29.384348-19.144348h315.213913l29.384348 19.144348-11.575652 16.027826z" fill="#F19642" p-id="2256"></path><path d="M660.257391 698.546087l21.815652 14.246956-5.342608 7.568696H332.577391l-5.342608-7.568696 21.815652-14.246956h311.206956m2.671305-13.356522H346.37913c-0.890435 0-1.78087 0.445217-2.671304 0.890435l-32.055652 20.925217c-2.226087 1.335652-2.671304 4.452174-1.335652 6.233044l13.801739 18.69913c0.890435 1.335652 2.226087 1.78087 3.561739 1.78087H681.182609c1.335652 0 2.671304-0.890435 3.561739-1.78087l13.801739-18.69913c1.335652-2.226087 0.890435-4.897391-1.335652-6.233044l-32.055652-20.925217c-0.445217-0.890435-1.335652-0.890435-2.226087-0.890435z" fill="#23267A" p-id="2257"></path><path d="M457.683478 805.843478c-2.226087 0-3.561739-1.78087-3.561739-3.561739v-2.226087c0-28.048696 22.706087-50.754783 50.754783-50.754782 28.048696 0 50.754783 22.706087 50.754782 50.754782v2.226087c0 2.226087-1.78087 3.561739-3.561739 3.561739h-94.386087z" fill="#F19642" p-id="2258"></path><path d="M504.876522 755.97913c24.041739 0 43.631304 19.144348 44.076521 43.186087h-88.153043c0.445217-24.041739 20.034783-43.186087 44.076522-43.186087m0-13.356521c-31.610435 0-57.433043 25.822609-57.433044 57.433043v2.226087c0 5.787826 4.452174 10.24 10.24 10.24H552.069565c5.787826 0 10.24-4.452174 10.24-10.24v-2.226087c0-31.610435-25.822609-57.433043-57.433043-57.433043z" fill="#23267A" p-id="2259"></path><path d="M351.721739 637.996522h305.864348v53.871304H351.721739z" fill="#F1E128" p-id="2260"></path><path d="M650.907826 644.674783v40.514782H358.4v-40.514782h292.507826m9.794783-13.356522H348.605217c-1.78087 0-3.561739 1.78087-3.561739 3.561739v60.104348c0 1.78087 1.78087 3.561739 3.561739 3.561739h312.097392c1.78087 0 3.561739-1.78087 3.561739-3.561739v-60.104348c0-1.78087-1.335652-3.561739-3.561739-3.561739z" fill="#23267A" p-id="2261"></path><path d="M348.16 637.996522l-8.904348-11.130435 24.932174-14.692174H645.565217l24.486957 14.692174-8.904348 11.130435z" fill="#F19642" p-id="2262"></path><path d="M643.784348 618.852174l16.473043 9.794783-2.226087 2.671304H351.276522l-2.226087-2.671304 16.473043-9.794783h278.26087m2.226087-13.356522H363.297391c-0.890435 0-1.335652 0-2.226087 0.445218l-28.493913 16.91826c-1.78087 1.335652-2.226087 3.561739-0.890434 5.342609l12.020869 15.137391c0.890435 0.890435 1.78087 1.335652 3.116522 1.335653h315.213913c1.335652 0 2.671304-0.445217 3.116522-1.335653l12.020869-15.137391c1.335652-1.78087 0.890435-4.006957-0.890435-5.342609l-28.493913-16.91826c0-0.445217-0.890435-0.445217-1.780869-0.445218z" fill="#23267A" p-id="2263"></path><path d="M475.046957 691.867826c-1.335652 0-2.671304-1.335652-2.671305-2.671304v-2.671305c0-17.808696 14.692174-32.055652 32.055652-32.055652h0.445218c17.808696 0 32.055652 14.692174 32.055652 32.055652v2.671305c0 1.335652-1.335652 2.671304-2.671304 2.671304h-59.213913z" fill="#F19642" p-id="2264"></path><path d="M504.876522 660.702609c13.801739 0 24.932174 10.685217 25.377391 24.486956h-51.645217c0.445217-13.356522 12.02087-24.486957 25.377391-24.486956h0.890435m0-13.356522h-0.445218c-21.370435 0-38.733913 17.363478-38.733913 38.733913v2.671304c0 5.342609 4.006957 9.349565 9.349566 9.349566h59.65913c5.342609 0 9.349565-4.006957 9.349565-9.349566v-2.671304c0-21.370435-17.363478-38.733913-39.17913-38.733913z" fill="#23267A" p-id="2265"></path><path d="M369.530435 558.747826h270.692174v53.871304H369.530435z" fill="#F1E128" p-id="2266"></path><path d="M633.544348 565.426087v40.514783H376.208696V565.426087h257.335652m9.794782-13.356522H365.968696c-1.78087 0-3.561739 1.335652-3.561739 3.561739v60.549566c0 1.78087 1.335652 3.561739 3.561739 3.561739h277.370434c1.78087 0 3.561739-1.335652 3.56174-3.561739v-60.549566c0-2.226087-1.78087-3.561739-3.56174-3.561739z" fill="#23267A" p-id="2267"></path><path d="M365.968696 558.747826l-8.013913-11.575652 21.815652-14.692174h249.766956l21.815652 14.692174-8.013913 11.575652z" fill="#F19642" p-id="2268"></path><path d="M627.311304 539.158261l14.692174 9.794782-2.226087 3.116522H369.530435l-2.226087-3.116522 14.692174-9.794782h245.314782m3.116522-13.356522H378.88c-0.890435 0-1.335652 0-1.78087 0.445218L351.721739 543.165217c-1.78087 1.335652-2.226087 3.561739-0.890435 5.342609l10.685218 15.137391c0.890435 0.890435 1.78087 1.335652 2.671304 1.335653h280.486957c1.335652 0 2.226087-0.445217 2.671304-1.335653l10.685217-15.137391c1.335652-1.78087 0.890435-4.006957-0.890434-5.342609l-25.377392-16.91826s-0.445217-0.445217-1.335652-0.445218z" fill="#23267A" p-id="2269"></path><path d="M478.163478 612.173913c-0.890435 0-1.78087-0.890435-1.780869-1.78087v-8.013913c0-15.582609 12.466087-28.048696 28.048695-28.048695s28.048696 12.466087 28.048696 28.048695v8.013913c0 0.890435-0.890435 1.78087-1.78087 1.78087h-52.535652z" fill="#F19642" p-id="2270"></path><path d="M504.876522 581.453913c12.02087 0 21.370435 9.794783 21.370435 21.370435v2.671304h-43.186087v-2.671304c0-12.02087 9.794783-21.370435 21.815652-21.370435m0-13.356522c-19.144348 0-34.726957 15.582609-34.726957 34.726957v8.013913c0 4.452174 3.561739 8.45913 8.459131 8.45913h52.980869c4.452174 0 8.45913-3.561739 8.459131-8.45913v-8.013913c-0.445217-19.144348-16.027826-34.726957-35.172174-34.726957z" fill="#23267A" p-id="2271"></path><path d="M385.558261 479.053913h238.191304v53.871304H385.558261z" fill="#F1E128" p-id="2272"></path><path d="M617.071304 485.732174v40.514783H392.236522v-40.514783h224.834782m10.24-13.356522h-244.869565c-1.78087 0-3.116522 1.335652-3.116522 3.116522v60.549565c0 1.78087 1.335652 3.116522 3.116522 3.116522h244.869565c1.78087 0 3.116522-1.335652 3.116522-3.116522v-60.549565c0-1.78087-1.335652-3.116522-3.116522-3.116522z" fill="#23267A" p-id="2273"></path><path d="M382.886957 478.608696l-7.568696-11.130435 19.589565-14.246957h219.937391l19.144348 14.246957-7.123478 11.130435z" fill="#F19642" p-id="2274"></path><path d="M612.61913 459.909565l12.466087 9.349565-1.780869 2.671305H386.448696l-1.78087-3.116522 12.466087-9.349565h215.485217m3.56174-12.911305h-222.608696c-0.445217 0-1.335652 0-1.78087 0.445218l-22.260869 16.918261c-1.335652 1.335652-1.78087 3.561739-0.890435 4.897391l9.794783 15.137391c0.445217 0.890435 1.335652 1.335652 2.671304 1.335653h248.431304c0.890435 0 1.78087-0.445217 2.671305-1.335653l9.794782-15.137391c0.890435-1.78087 0.890435-4.006957-0.890435-4.897391l-22.260869-16.918261c-1.78087-0.445217-2.226087-0.445217-2.671304-0.445218z" fill="#23267A" p-id="2275"></path><path d="M481.28 532.925217c-0.445217 0-0.445217-0.445217-0.445217-0.445217v-13.356522c0-12.911304 10.685217-23.596522 23.596521-23.596521h0.890435c12.911304 0 23.596522 10.685217 23.596522 23.596521v13.356522c0 0.445217-0.445217 0.445217-0.445218 0.445217h-47.193043z" fill="#F19642" p-id="2276"></path><path d="M505.321739 501.76c9.349565 0 16.918261 7.568696 16.918261 16.918261v7.123478h-35.172174v-7.123478c0-9.349565 7.568696-16.918261 16.918261-16.918261h1.335652m0-13.356522h-0.890435c-16.918261 0-30.274783 13.801739-30.274782 30.274783v13.356522c0 4.006957 3.116522 7.123478 7.123478 7.123478h47.193043c4.006957 0 7.123478-3.116522 7.123479-7.123478v-13.356522c0-16.473043-13.801739-30.274783-30.274783-30.274783z" fill="#23267A" p-id="2277"></path><path d="M399.36 399.36h211.033043v53.871304H399.36z" fill="#F1E128" p-id="2278"></path><path d="M603.714783 406.038261v40.514782H406.038261v-40.514782h197.676522m10.24-13.356522h-218.156522c-1.78087 0-3.116522 1.335652-3.116522 3.116522v60.994782c0 1.78087 1.335652 3.116522 3.116522 3.116522h218.156522c1.78087 0 3.116522-1.335652 3.116521-3.116522V395.798261c0-1.78087-1.78087-3.116522-3.116521-3.116522z" fill="#23267A" p-id="2279"></path><path d="M396.688696 398.914783l-6.678261-11.130435 16.918261-14.246957h195.450434l16.918261 14.246957-6.233043 11.130435z" fill="#F19642" p-id="2280"></path><path d="M600.153043 380.215652l10.685218 9.349565-1.78087 3.116522H400.250435l-1.78087-3.116522 10.685218-9.349565h190.99826m4.006957-13.356522H405.593043c-0.445217 0-0.890435 0-1.335652 0.445218l-20.034782 16.918261c-1.335652 1.335652-1.78087 3.561739-0.890435 4.897391l8.45913 15.137391c0.445217 0.890435 1.335652 1.335652 2.226087 1.335652h221.273044c0.890435 0 1.78087-0.445217 2.226087-1.335652l8.45913-15.137391c0.890435-1.78087 0.445217-4.006957-0.890435-4.897391l-20.034782-16.918261c0-0.445217-0.445217-0.445217-0.890435-0.445218z" fill="#23267A" p-id="2281"></path><path d="M483.506087 453.231304l0.445217-17.363478c0-11.130435 8.904348-20.48 20.48-20.48h0.890435c11.130435 0 20.48 8.904348 20.48 20.48v17.363478h-42.295652z" fill="#F19642" p-id="2282"></path><path d="M505.321739 422.066087c7.568696 0 13.801739 6.233043 13.801739 13.801739v10.685217h-28.493913v-10.685217c0-7.568696 6.233043-13.801739 13.801739-13.801739h0.890435m0-13.356522h-0.890435c-14.692174 0-27.158261 12.02087-27.158261 27.158261v17.808696c0 3.561739 2.671304 6.233043 6.233044 6.233043h42.295652c3.561739 0 6.233043-2.671304 6.233044-6.233043v-17.808696c0-15.137391-12.02087-27.158261-26.713044-27.158261z" fill="#23267A" p-id="2283"></path><path d="M411.826087 319.666087h185.655652v53.871304H411.826087z" fill="#F1E128" p-id="2284"></path><path d="M590.803478 326.344348v40.514782H418.504348v-40.514782h172.29913m10.685218-13.356522H407.81913c-1.78087 0-2.671304 1.335652-2.671304 2.671304v61.44c0 1.78087 1.335652 2.671304 2.671304 2.671305H601.043478c1.78087 0 2.671304-1.335652 2.671305-2.671305V315.65913c0.445217-1.78087-0.890435-2.671304-2.226087-2.671304z" fill="#23267A" p-id="2285"></path><path d="M409.154783 319.22087l-5.787826-11.130435 15.137391-14.692174h172.29913l15.137392 14.692174-5.787827 11.130435z" fill="#F19642" p-id="2286"></path><path d="M588.132174 300.076522l9.349565 8.904348-1.780869 3.561739h-182.539131l-1.780869-3.561739 9.349565-8.904348h167.401739m4.897391-13.356522H416.723478c-0.445217 0-0.890435 0-1.335652 0.445217l-17.808696 16.918261c-1.335652 1.335652-1.335652 3.561739-0.445217 5.342609l7.568696 15.137391c0.445217 0.890435 1.335652 1.335652 2.226087 1.335652h196.340869c0.890435 0 1.335652-0.445217 2.226087-1.335652l7.568696-15.137391c0.890435-1.78087 0.445217-4.006957-0.445218-5.342609l-17.808695-16.918261c-0.890435 0-1.335652-0.445217-1.78087-0.445217z" fill="#23267A" p-id="2287"></path><path d="M487.067826 373.092174v-20.925217c0-9.349565 7.568696-16.918261 16.918261-16.918261h1.78087c9.349565 0 16.918261 7.568696 16.91826 16.918261v20.925217h-35.617391z" fill="#F19642" p-id="2288"></path><path d="M505.766957 342.372174c5.342609 0 10.24 4.452174 10.24 10.24v14.246956h-22.26087v-14.246956c0-5.342609 4.452174-10.24 10.24-10.24h1.78087m0-13.356522h-1.78087c-12.911304 0-23.596522 10.685217-23.596522 23.596522v21.815652c0 3.116522 2.671304 5.787826 5.787826 5.787826h37.843479c3.116522 0 5.787826-2.671304 5.787826-5.787826v-21.815652c-0.445217-13.356522-11.130435-23.596522-24.041739-23.596522z" fill="#23267A" p-id="2289"></path><path d="M422.956522 239.972174h163.394782V293.843478H422.956522z" fill="#F1E128" p-id="2290"></path><path d="M579.673043 246.650435v40.514782H429.634783v-40.514782h150.03826m10.685218-13.356522H418.949565c-1.335652 0-2.671304 1.335652-2.671304 2.671304v61.885218c0 1.335652 1.335652 2.671304 2.671304 2.671304h171.408696c1.335652 0 2.671304-1.335652 2.671304-2.671304V235.965217c0-1.335652-1.335652-2.671304-2.671304-2.671304z" fill="#23267A" p-id="2291"></path><path d="M420.285217 239.972174l-4.006956-7.568696 88.153043-47.638261 88.598261 47.638261-4.006956 7.568696z" fill="#F19642" p-id="2292"></path><path d="M504.431304 192.333913l76.577392 40.96H428.744348l75.686956-40.96m-0.445217-15.137391L409.6 228.396522c-0.890435 0.890435-1.335652 3.116522-0.445217 4.452174l6.67826 12.466087c0.445217 0.890435 0.890435 1.335652 1.78087 1.335652H592.13913c0.890435 0 1.335652-0.445217 1.78087-1.335652l6.678261-12.466087c0.890435-1.335652 0.445217-3.561739-0.445218-4.452174l-94.386086-50.754783c-0.890435-0.445217-1.335652-0.445217-1.78087-0.445217z" fill="#23267A" p-id="2293"></path><path d="M489.73913 293.843478v-22.706087c0-8.45913 6.678261-15.137391 15.137392-15.137391s15.137391 6.678261 15.137391 15.137391V293.843478H489.73913z" fill="#F19642" p-id="2294"></path><path d="M504.876522 262.678261c4.452174 0 8.45913 3.561739 8.45913 8.45913v16.027826h-16.473043v-16.027826c-0.445217-4.452174 3.116522-8.45913 8.013913-8.45913m0-13.356522c-12.02087 0-21.815652 9.794783-21.815652 21.815652v23.151305c0 3.561739 2.671304 6.233043 6.233043 6.233043h31.165217c3.561739 0 6.233043-2.671304 6.233044-6.233043v-23.151305c-0.445217-12.02087-9.794783-21.815652-21.815652-21.815652z" fill="#23267A" p-id="2295"></path><path d="M503.986087 195.450435c-7.123478 0-12.911304-5.787826-12.911304-12.911305s5.787826-12.911304 12.911304-12.911304c7.123478 0 12.911304 5.787826 12.911304 12.911304s-5.787826 12.911304-12.911304 12.911305z" fill="#5F51A0" p-id="2296"></path><path d="M503.986087 176.306087c3.561739 0 6.233043 2.671304 6.233043 6.233043s-2.671304 6.233043-6.233043 6.233044-6.233043-2.671304-6.233044-6.233044 3.116522-6.233043 6.233044-6.233043m0-13.356522c-10.685217 0-19.589565 8.904348-19.589565 19.589565 0 10.685217 8.904348 19.589565 19.589565 19.589566s19.589565-8.904348 19.589565-19.589566c0-11.130435-8.45913-19.589565-19.589565-19.589565z" fill="#23267A" p-id="2297"></path><path d="M60.104348 757.76H356.173913V805.843478H60.104348z" fill="#F19642" p-id="2298"></path><path d="M349.050435 764.438261v34.726956H66.782609v-34.726956h282.267826m11.575652-13.356522H55.206957c-0.890435 0-1.78087 0.890435-1.78087 1.78087V810.295652c0 0.890435 0.890435 1.78087 1.78087 1.78087H360.626087c0.890435 0 1.78087-0.890435 1.78087-1.78087v-57.433043c0-1.335652-0.445217-1.78087-1.78087-1.78087z" fill="#23267A" p-id="2299"></path><path d="M639.332174 757.76h296.069565V805.843478h-296.069565z" fill="#F19642" p-id="2300"></path><path d="M928.723478 764.438261v34.726956h-282.713043v-34.726956h282.713043m11.130435-13.356522h-305.41913c-0.890435 0-1.78087 0.890435-1.78087 1.78087V810.295652c0 0.890435 0.890435 1.78087 1.78087 1.78087h305.41913c0.890435 0 1.78087-0.890435 1.78087-1.78087v-57.433043c0.445217-1.335652-0.445217-1.78087-1.78087-1.78087z" fill="#23267A" p-id="2301"></path><path d="M101.509565 223.053913H71.234783c-3.561739 0-6.678261-3.116522-6.678261-6.678261s3.116522-6.678261 6.678261-6.678261h30.72c3.561739 0 6.678261 3.116522 6.67826 6.678261s-3.116522 6.678261-7.123478 6.678261z" fill="#23267A" p-id="2302"></path><path d="M86.372174 238.191304c-3.561739 0-6.678261-3.116522-6.678261-6.678261v-30.72c0-3.561739 3.116522-6.678261 6.678261-6.67826s6.678261 3.116522 6.678261 6.67826V231.513043c0 3.561739-3.116522 6.678261-6.678261 6.678261z" fill="#23267A" p-id="2303"></path><path d="M254.664348 143.36h-30.72c-3.561739 0-6.678261-3.116522-6.678261-6.678261s3.116522-6.678261 6.678261-6.678261h30.72c3.561739 0 6.678261 3.116522 6.678261 6.678261s-3.116522 6.678261-6.678261 6.678261z" fill="#23267A" p-id="2304"></path><path d="M239.526957 158.497391c-3.561739 0-6.678261-3.116522-6.678261-6.678261v-30.72c0-3.561739 3.116522-6.678261 6.678261-6.67826s6.678261 3.116522 6.67826 6.67826v30.72c0 4.006957-3.116522 6.678261-6.67826 6.678261z" fill="#23267A" p-id="2305"></path><path d="M960.333913 412.716522h-30.72c-3.561739 0-6.678261-3.116522-6.678261-6.678261s3.116522-6.678261 6.678261-6.678261h30.72c3.561739 0 6.678261 3.116522 6.678261 6.678261s-3.116522 6.678261-6.678261 6.678261z" fill="#23267A" p-id="2306"></path><path d="M945.196522 428.29913c-3.561739 0-6.678261-3.116522-6.678261-6.67826v-30.72c0-3.561739 3.116522-6.678261 6.678261-6.678261s6.678261 3.116522 6.678261 6.678261v30.72c0 3.561739-3.116522 6.678261-6.678261 6.67826z" fill="#23267A" p-id="2307"></path><path d="M971.01913 244.869565h-143.805217c-3.561739 0-6.678261-3.116522-6.678261-6.678261s3.116522-6.678261 6.678261-6.678261h143.805217c3.561739 0 6.678261 3.116522 6.678261 6.678261s-3.116522 6.678261-6.678261 6.678261z" fill="#23267A" p-id="2308"></path><path d="M1015.986087 244.869565h-22.706087c-3.561739 0-6.678261-3.116522-6.678261-6.678261s3.116522-6.678261 6.678261-6.678261h22.706087c3.561739 0 6.678261 3.116522 6.678261 6.678261s-2.671304 6.678261-6.678261 6.678261z" fill="#23267A" p-id="2309"></path><path d="M150.928696 143.36H7.123478c-3.561739 0-6.678261-3.116522-6.678261-6.678261s3.116522-6.678261 6.678261-6.678261h143.805218c3.561739 0 6.678261 3.116522 6.678261 6.678261s-3.116522 6.678261-6.678261 6.678261z" fill="#23267A" p-id="2310"></path><path d="M196.34087 143.36H173.634783c-3.561739 0-6.678261-3.116522-6.678261-6.678261s3.116522-6.678261 6.678261-6.678261h22.706087c3.561739 0 6.678261 3.116522 6.67826 6.678261s-3.116522 6.678261-6.67826 6.678261z" fill="#23267A" p-id="2311"></path></svg>